<svg id="图层_1" data-name="图层 1" xmlns="http://www.w3.org/2000/svg" viewBox="0 0 113.38 127.3"><defs><style>.cls-1{fill:#e4bf2d;fill-rule:evenodd;}</style></defs><title>企信网LOGO黄色定稿AI版仅LOGO</title><path class="cls-1" d="M488.34,69.75c2.61,1.6,7.46,4.11,9,5.25v43.92l6.72,6.48,7.2-7.2V104l10.08,6v12.72l-9.84,9.84v.48l9.84,9.84c.06,3.4,0,11,0,11s-6.8,3.77-10.08,5.76c-.09-4.32,0-12.72,0-12.72s-4.4-4.57-7.2-7.2c-2.24,2.16-4.48,4.56-6.72,6.72v21.36L487,173.64v-31.2l9.84-9.6-9.6-9.6q-.12-15.72-.24-31.44c0-2.76.24-11,.24-11s-3.12-1.68-4.32-2.4L436.63,105v53.76l24,13.68-.24,11.76-25.92-15.12s-5.92-2.83-7.44-6.72c-1.08-2.76-.69-8.79-.69-8.79s0-22.44,0-28.65V107.16a16.15,16.15,0,0,1,1.44-7.2c1.13-2.22,3.72-3.41,5.52-4.56,3.34-2.15,6.34-3.48,9.36-5.28,10.82-6.46,28.59-16.61,36.48-21.12A9.76,9.76,0,0,1,488.34,69.75Zm17.17,9.81c5.23,3.38,19,11,27.6,16.08,3.75,2.21,5.33,3.8,5.88,5.7a16.43,16.43,0,0,1,.6,5.34c.07,14-.07,27.83,0,41.76,0,5.69.55,13.08-1.68,15.84s-5.87,4.45-8.88,6.24L505.75,184c-4.4,2.61-18.19,11.52-22.08,11.52-5.61,0-7.43-2.31-9.6-3.6l-5.28-3.12c.06-5.2,0-21.12,0-21.12l-24-13.68V109.8q17.16-9.72,34.32-19.44-.12,33.94-.24,67.92c0,6.09-.12,20.43,0,25,1.07.63,3,1.76,4.08,2.4,15.6-9,31-18.17,46.56-27.12V105l-24-13.92Zm-36.72,28.08s-9.44,5.52-13.92,8.16v32.4l13.92,7.92V107.64Z" transform="translate(-426.27 -68.18)"/></svg>